<svg width="100" height="100" viewBox="0 0 100 100" fill="none" xmlns="http://www.w3.org/2000/svg">
<path d="M45.8077 10H49.8691V22.3077H45.8077V10Z" fill="#015743"/>
<path d="M63.4891 65.4006C63.4891 63.7981 63.2246 62.3691 62.6958 61.1138C62.167 59.8584 61.2944 58.7366 60.0781 57.7484C58.8883 56.7334 57.2753 55.7986 55.2394 54.9439C53.2298 54.0625 50.7179 53.1944 47.7036 52.3397C44.8215 51.5118 42.217 50.6036 39.8902 49.6154C37.5633 48.6271 35.567 47.492 33.9012 46.2099C32.2618 44.9279 31.0059 43.4322 30.1333 41.7228C29.2607 39.9866 28.8245 37.9701 28.8245 35.6731C28.8245 33.4295 29.3004 31.3862 30.2523 29.5433C31.2042 27.7003 32.5395 26.1111 34.2581 24.7756C36.0033 23.4402 38.0525 22.4119 40.4058 21.6907C42.7855 20.9696 45.39 20.609 48.2192 20.609C52.2647 20.609 55.755 21.3835 58.6899 22.9327C61.6514 24.4818 63.9386 26.5785 65.5515 29.2228C67.1908 31.8403 68.0105 34.7783 68.0105 38.0369H63.1321C63.1321 35.4995 62.5372 33.2425 61.3473 31.266C60.1839 29.2628 58.4916 27.7003 56.2706 26.5785C54.0759 25.43 51.3921 24.8558 48.2192 24.8558C45.0462 24.8558 42.3756 25.3499 40.2074 26.3381C38.0657 27.2997 36.4396 28.5951 35.329 30.2244C34.2449 31.8269 33.7029 33.6165 33.7029 35.593C33.7029 36.9818 33.9673 38.2639 34.4961 39.4391C35.0249 40.5876 35.8843 41.6693 37.0742 42.6843C38.2905 43.6725 39.8902 44.6074 41.8733 45.4888C43.8564 46.3435 46.3022 47.1581 49.2107 47.9327C52.2779 48.7874 55.0014 49.7356 57.3811 50.7772C59.7608 51.8189 61.7704 53.0208 63.4097 54.383C65.0491 55.7185 66.2918 57.281 67.138 59.0705C67.9841 60.86 68.4071 62.9434 68.4071 65.3205C68.4071 67.6977 67.9048 69.8344 66.9 71.7308C65.9217 73.6004 64.5335 75.1896 62.7355 76.4984C60.9639 77.8072 58.8618 78.8088 56.4292 79.5032C54.0231 80.1977 51.3921 80.5449 48.5365 80.5449C45.9717 80.5449 43.4201 80.211 40.8817 79.5433C38.3433 78.8755 36.0165 77.8472 33.9012 76.4583C31.8123 75.0427 30.1333 73.2265 28.8641 71.0096C27.6214 68.7927 27 66.1485 27 63.0769H31.8388C31.8388 65.5342 32.3279 67.6042 33.3063 69.2869C34.2846 70.9696 35.5802 72.3317 37.1931 73.3734C38.8325 74.4151 40.6305 75.1763 42.5872 75.6571C44.5703 76.1111 46.5534 76.3381 48.5365 76.3381C51.5772 76.3381 54.2081 75.8841 56.4292 74.976C58.6767 74.0678 60.4086 72.7991 61.6249 71.1699C62.8677 69.5139 63.4891 67.5908 63.4891 65.4006Z" fill="#015743"/>
<path d="M45.8077 79.7436H49.8691V90H45.8077V79.7436Z" fill="#015743"/>
<path d="M49.8691 10H53.9305V22.3077H49.8691V10Z" fill="#00875F"/>
<path d="M68.0819 65.4006C68.0819 63.7981 67.8175 62.3691 67.2887 61.1138C66.7598 59.8584 65.8873 58.7366 64.671 57.7484C63.4811 56.7334 61.8682 55.7986 59.8322 54.9439C57.8227 54.0625 55.3107 53.1944 52.2964 52.3397C49.4143 51.5118 46.8099 50.6036 44.483 49.6154C42.1562 48.6271 40.1599 47.492 38.4941 46.2099C36.8547 44.9279 35.5987 43.4322 34.7262 41.7228C33.8536 39.9866 33.4173 37.9701 33.4173 35.6731C33.4173 33.4295 33.8933 31.3862 34.8451 29.5433C35.797 27.7003 37.1323 26.1111 38.851 24.7756C40.5961 23.4402 42.6453 22.4119 44.9986 21.6907C47.3783 20.9696 49.9828 20.609 52.812 20.609C56.8576 20.609 60.3478 21.3835 63.2828 22.9327C66.2442 24.4818 68.5314 26.5785 70.1443 29.2228C71.7837 31.8403 72.6034 34.7783 72.6034 38.0369H67.725C67.725 35.4995 67.13 33.2425 65.9402 31.266C64.7767 29.2628 63.0845 27.7003 60.8634 26.5785C58.6688 25.43 55.985 24.8558 52.812 24.8558C49.6391 24.8558 46.9685 25.3499 44.8003 26.3381C42.6586 27.2997 41.0324 28.5951 39.9219 30.2244C38.8378 31.8269 38.2957 33.6165 38.2957 35.593C38.2957 36.9818 38.5602 38.2639 39.089 39.4391C39.6178 40.5876 40.4772 41.6693 41.667 42.6843C42.8833 43.6725 44.483 44.6074 46.4661 45.4888C48.4492 46.3435 50.895 47.1581 53.8036 47.9327C56.8708 48.7874 59.5942 49.7356 61.974 50.7772C64.3537 51.8189 66.3632 53.0208 68.0026 54.383C69.642 55.7185 70.8847 57.281 71.7308 59.0705C72.5769 60.86 73 62.9434 73 65.3205C73 67.6977 72.4976 69.8344 71.4928 71.7308C70.5145 73.6004 69.1263 75.1896 67.3283 76.4984C65.5568 77.8072 63.4547 78.8088 61.0221 79.5032C58.6159 80.1977 55.985 80.5449 53.1293 80.5449C50.5645 80.5449 48.0129 80.211 45.4746 79.5433C42.9362 78.8755 40.6094 77.8472 38.4941 76.4583C36.4052 75.0427 34.7262 73.2265 33.457 71.0096C32.2142 68.7927 31.5929 66.1485 31.5929 63.0769H36.4316C36.4316 65.5342 36.9208 67.6042 37.8991 69.2869C38.8775 70.9696 40.1731 72.3317 41.786 73.3734C43.4254 74.4151 45.2234 75.1763 47.18 75.6571C49.1631 76.1111 51.1462 76.3381 53.1293 76.3381C56.1701 76.3381 58.801 75.8841 61.0221 74.976C63.2696 74.0678 65.0015 72.7991 66.2178 71.1699C67.4605 69.5139 68.0819 67.5908 68.0819 65.4006Z" fill="#00875F"/>
<path d="M49.8691 79.7436H53.9305V90H49.8691V79.7436Z" fill="#00875F"/>
</svg>
