<svg width="160" height="33" viewBox="0 0 160 33" fill="none" xmlns="http://www.w3.org/2000/svg">
<path d="M38.8611 20.1454H40.9725C40.8625 21.1406 40.573 22.0313 40.1038 22.8173C39.6346 23.6034 38.9711 24.2272 38.1134 24.6887C37.2556 25.143 36.1853 25.3702 34.9023 25.3702C33.9639 25.3702 33.1098 25.1971 32.3401 24.851C31.5776 24.5048 30.9215 24.0144 30.3716 23.3798C29.8218 22.738 29.3966 21.97 29.096 21.0757C28.8028 20.1743 28.6561 19.1719 28.6561 18.0685V16.5C28.6561 15.3966 28.8028 14.3978 29.096 13.5036C29.3966 12.6022 29.8255 11.8305 30.3826 11.1887C30.9471 10.5469 31.6253 10.0529 32.417 9.70673C33.2088 9.36058 34.0995 9.1875 35.0892 9.1875C36.2989 9.1875 37.3216 9.41106 38.1573 9.85817C38.9931 10.3053 39.6419 10.9255 40.1038 11.7188C40.573 12.5048 40.8625 13.4171 40.9725 14.4555H38.8611C38.7585 13.72 38.5679 13.0889 38.2893 12.5625C38.0107 12.0288 37.6148 11.6178 37.1016 11.3293C36.5885 11.0409 35.9177 10.8966 35.0892 10.8966C34.3781 10.8966 33.7513 11.03 33.2088 11.2969C32.6736 11.5637 32.2228 11.9423 31.8562 12.4327C31.497 12.9231 31.2257 13.5108 31.0424 14.1959C30.8592 14.881 30.7675 15.6418 30.7675 16.4784V18.0685C30.7675 18.8401 30.8482 19.5649 31.0094 20.2428C31.1781 20.9207 31.431 21.5156 31.7682 22.0276C32.1055 22.5397 32.5343 22.9435 33.0548 23.2392C33.5754 23.5276 34.1912 23.6719 34.9023 23.6719C35.804 23.6719 36.5225 23.5313 37.0577 23.25C37.5928 22.9688 37.9961 22.5649 38.2673 22.0385C38.5459 21.512 38.7438 20.881 38.8611 20.1454Z" fill="#00875F"/>
<path d="M53.5748 23.4555V25.1538H45.5692V23.4555H53.5748ZM45.987 9.40385V25.1538H43.8647V9.40385H45.987Z" fill="#00875F"/>
<path d="M66.1771 23.4555V25.1538H57.6986V23.4555H66.1771ZM58.1274 9.40385V25.1538H56.0051V9.40385H58.1274ZM65.0554 16.1755V17.8738H57.6986V16.1755H65.0554ZM66.0671 9.40385V11.113H57.6986V9.40385H66.0671Z" fill="#00875F"/>
<path d="M74.7326 10.7993L69.4321 25.1538H67.2658L73.369 9.40385H74.7655L74.7326 10.7993ZM79.1752 25.1538L73.8638 10.7993L73.8308 9.40385H75.2274L81.3526 25.1538H79.1752ZM78.9003 19.3233V21.0325H69.905V19.3233H78.9003Z" fill="#00875F"/>
<path d="M83.497 9.40385H88.7974C89.9997 9.40385 91.0151 9.58413 91.8435 9.94471C92.6793 10.3053 93.3134 10.8389 93.7459 11.5457C94.1858 12.2452 94.4057 13.107 94.4057 14.131C94.4057 14.8522 94.2555 15.512 93.9549 16.1106C93.6616 16.7019 93.2364 17.2067 92.6793 17.625C92.1294 18.0361 91.4696 18.3425 90.6998 18.5445L90.106 18.7716H85.1245L85.1025 17.0733H88.8634C89.6258 17.0733 90.26 16.9435 90.7658 16.6839C91.2717 16.4171 91.6529 16.0601 91.9095 15.613C92.1661 15.1659 92.2944 14.6719 92.2944 14.131C92.2944 13.5252 92.1734 12.9952 91.9315 12.5409C91.6896 12.0865 91.3083 11.7368 90.7878 11.4916C90.2746 11.2392 89.6112 11.113 88.7974 11.113H85.6193V25.1538H83.497V9.40385ZM92.8552 25.1538L88.9624 18.0144L91.1727 18.0036L95.1205 25.024V25.1538H92.8552Z" fill="#00875F"/>
<path d="M112.627 20.1454H114.739C114.629 21.1406 114.339 22.0313 113.87 22.8173C113.401 23.6034 112.737 24.2272 111.88 24.6887C111.022 25.143 109.951 25.3702 108.669 25.3702C107.73 25.3702 106.876 25.1971 106.106 24.851C105.344 24.5048 104.688 24.0144 104.138 23.3798C103.588 22.738 103.163 21.97 102.862 21.0757C102.569 20.1743 102.422 19.1719 102.422 18.0685V16.5C102.422 15.3966 102.569 14.3978 102.862 13.5036C103.163 12.6022 103.592 11.8305 104.149 11.1887C104.713 10.5469 105.392 10.0529 106.183 9.70673C106.975 9.36058 107.866 9.1875 108.855 9.1875C110.065 9.1875 111.088 9.41106 111.924 9.85817C112.759 10.3053 113.408 10.9255 113.87 11.7188C114.339 12.5048 114.629 13.4171 114.739 14.4555H112.627C112.525 13.72 112.334 13.0889 112.056 12.5625C111.777 12.0288 111.381 11.6178 110.868 11.3293C110.355 11.0409 109.684 10.8966 108.855 10.8966C108.144 10.8966 107.518 11.03 106.975 11.2969C106.44 11.5637 105.989 11.9423 105.622 12.4327C105.263 12.9231 104.992 13.5108 104.809 14.1959C104.625 14.881 104.534 15.6418 104.534 16.4784V18.0685C104.534 18.8401 104.614 19.5649 104.776 20.2428C104.944 20.9207 105.197 21.5156 105.534 22.0276C105.872 22.5397 106.301 22.9435 106.821 23.2392C107.342 23.5276 107.957 23.6719 108.669 23.6719C109.57 23.6719 110.289 23.5313 110.824 23.25C111.359 22.9688 111.762 22.5649 112.034 22.0385C112.312 21.512 112.51 20.881 112.627 20.1454Z" fill="#015743"/>
<path d="M123.558 10.7993L118.258 25.1538H116.091L122.195 9.40385H123.591L123.558 10.7993ZM128.001 25.1538L122.689 10.7993L122.656 9.40385H124.053L130.178 25.1538H128.001ZM127.726 19.3233V21.0325H118.731V19.3233H127.726Z" fill="#015743"/>
<path d="M140.856 21.1731C140.856 20.8053 140.797 20.4808 140.68 20.1995C140.57 19.9111 140.372 19.6514 140.086 19.4207C139.808 19.1899 139.419 18.97 138.921 18.7608C138.429 18.5517 137.806 18.3389 137.051 18.1226C136.259 17.8918 135.545 17.6358 134.907 17.3546C134.269 17.0661 133.723 16.738 133.268 16.3702C132.814 16.0024 132.466 15.5805 132.224 15.1046C131.982 14.6286 131.861 14.0841 131.861 13.4712C131.861 12.8582 131.989 12.2921 132.246 11.7728C132.502 11.2536 132.869 10.8029 133.345 10.4207C133.829 10.0313 134.405 9.72837 135.072 9.51202C135.739 9.29567 136.483 9.1875 137.304 9.1875C138.506 9.1875 139.525 9.41466 140.361 9.86899C141.204 10.3161 141.846 10.9038 142.286 11.6322C142.726 12.3534 142.945 13.125 142.945 13.9471H140.834C140.834 13.3558 140.706 12.8329 140.449 12.3786C140.193 11.9171 139.804 11.5565 139.284 11.2969C138.763 11.03 138.103 10.8966 137.304 10.8966C136.549 10.8966 135.926 11.0084 135.435 11.232C134.943 11.4555 134.577 11.7584 134.335 12.1406C134.1 12.5228 133.983 12.9591 133.983 13.4495C133.983 13.7813 134.053 14.0841 134.192 14.3582C134.339 14.625 134.562 14.8738 134.863 15.1046C135.171 15.3353 135.559 15.5481 136.028 15.7428C136.505 15.9375 137.073 16.125 137.733 16.3053C138.642 16.5577 139.426 16.8389 140.086 17.149C140.746 17.4591 141.289 17.8089 141.714 18.1983C142.146 18.5805 142.465 19.0168 142.671 19.5072C142.883 19.9904 142.989 20.5385 142.989 21.1514C142.989 21.7933 142.857 22.3738 142.594 22.893C142.33 23.4123 141.952 23.8558 141.461 24.2236C140.97 24.5913 140.38 24.8762 139.69 25.0781C139.009 25.2728 138.246 25.3702 137.403 25.3702C136.663 25.3702 135.933 25.2692 135.215 25.0673C134.504 24.8654 133.855 24.5625 133.268 24.1587C132.689 23.7548 132.224 23.2572 131.872 22.6659C131.527 22.0673 131.355 21.375 131.355 20.5889H133.466C133.466 21.1298 133.573 21.595 133.785 21.9844C133.998 22.3666 134.287 22.6839 134.654 22.9363C135.028 23.1887 135.449 23.3762 135.919 23.4988C136.395 23.6142 136.89 23.6719 137.403 23.6719C138.144 23.6719 138.77 23.5709 139.284 23.369C139.797 23.1671 140.185 22.8786 140.449 22.5036C140.72 22.1286 140.856 21.6851 140.856 21.1731Z" fill="#015743"/>
<path d="M156.153 16.1755V17.8738H147.487V16.1755H156.153ZM147.817 9.40385V25.1538H145.695V9.40385H147.817ZM158 9.40385V25.1538H155.889V9.40385H158Z" fill="#015743"/>
<path d="M8.51833 3H9.92591V7.15385H8.51833V3Z" fill="#015743"/>
<path d="M14.6463 21.6977C14.6463 21.1569 14.5546 20.6746 14.3714 20.2509C14.1881 19.8272 13.8857 19.4486 13.4641 19.1151C13.0517 18.7725 12.4927 18.457 11.7871 18.1686C11.0907 17.8711 10.2201 17.5781 9.17538 17.2897C8.17651 17.0102 7.27386 16.7037 6.46743 16.3702C5.661 16.0367 4.96912 15.6535 4.39179 15.2209C3.82363 14.7882 3.38834 14.2834 3.08593 13.7064C2.78352 13.1205 2.63231 12.4399 2.63231 11.6647C2.63231 10.9075 2.79726 10.2178 3.12717 9.59585C3.45707 8.97386 3.91985 8.4375 4.51551 7.98678C5.12033 7.53606 5.83054 7.189 6.64613 6.94561C7.47089 6.70222 8.37354 6.58053 9.35408 6.58053C10.7562 6.58053 11.9658 6.84195 12.983 7.36478C14.0094 7.88762 14.8021 8.59525 15.3611 9.48768C15.9292 10.3711 16.2133 11.3627 16.2133 12.4624H14.5226C14.5226 11.6061 14.3164 10.8444 13.904 10.1773C13.5008 9.5012 12.9143 8.97386 12.1445 8.59525C11.3839 8.20763 10.4538 8.01382 9.35408 8.01382C8.25441 8.01382 7.32885 8.18059 6.5774 8.51412C5.83512 8.83864 5.27154 9.27584 4.88665 9.82572C4.51093 10.3666 4.32306 10.9706 4.32306 11.6376C4.32306 12.1064 4.4147 12.5391 4.59798 12.9357C4.78126 13.3233 5.07909 13.6884 5.49147 14.0309C5.91301 14.3645 6.46743 14.68 7.15473 14.9775C7.84203 15.2659 8.68969 15.5409 9.69773 15.8023C10.7607 16.0907 11.7046 16.4108 12.5294 16.7623C13.3542 17.1139 14.0506 17.5195 14.6188 17.9793C15.1869 18.43 15.6177 18.9573 15.9109 19.5613C16.2041 20.1653 16.3508 20.8684 16.3508 21.6707C16.3508 22.473 16.1767 23.1941 15.8284 23.8341C15.4894 24.4651 15.0082 25.0015 14.3851 25.4432C13.7711 25.8849 13.0426 26.223 12.1995 26.4573C11.3656 26.6917 10.4538 26.8089 9.46405 26.8089C8.57514 26.8089 7.69082 26.6962 6.81108 26.4709C5.93134 26.2455 5.12491 25.8984 4.39179 25.4297C3.66784 24.9519 3.08593 24.3389 2.64606 23.5907C2.21535 22.8425 2 21.9501 2 20.9135H3.67701C3.67701 21.7428 3.84654 22.4414 4.18561 23.0093C4.52467 23.5772 4.97371 24.037 5.53271 24.3885C6.10087 24.7401 6.72402 24.997 7.40216 25.1593C8.08945 25.3125 8.77675 25.3891 9.46405 25.3891C10.5179 25.3891 11.4297 25.2359 12.1995 24.9294C12.9784 24.6229 13.5787 24.1947 14.0002 23.6448C14.4309 23.0859 14.6463 22.4369 14.6463 21.6977Z" fill="#015743"/>
<path d="M8.51833 26.5385H9.92591V30H8.51833V26.5385Z" fill="#015743"/>
<path d="M9.92591 3H11.3335V7.15385H9.92591V3Z" fill="#00875F"/>
<path d="M16.2381 21.6977C16.2381 21.1569 16.1464 20.6746 15.9631 20.2509C15.7799 19.8272 15.4774 19.4486 15.0559 19.1151C14.6435 18.7725 14.0845 18.457 13.3789 18.1686C12.6824 17.8711 11.8119 17.5781 10.7672 17.2897C9.76829 17.0102 8.86564 16.7037 8.05921 16.3702C7.25278 16.0367 6.5609 15.6535 5.98358 15.2209C5.41541 14.7882 4.98012 14.2834 4.67771 13.7064C4.3753 13.1205 4.22409 12.4399 4.22409 11.6647C4.22409 10.9075 4.38905 10.2178 4.71895 9.59585C5.04885 8.97386 5.51163 8.4375 6.10729 7.98678C6.71211 7.53606 7.42232 7.189 8.23791 6.94561C9.06267 6.70222 9.96532 6.58053 10.9459 6.58053C12.3479 6.58053 13.5576 6.84195 14.5748 7.36478C15.6012 7.88762 16.3938 8.59525 16.9528 9.48768C17.521 10.3711 17.8051 11.3627 17.8051 12.4624H16.1143C16.1143 11.6061 15.9081 10.8444 15.4958 10.1773C15.0926 9.5012 14.5061 8.97386 13.7363 8.59525C12.9757 8.20763 12.0455 8.01382 10.9459 8.01382C9.84619 8.01382 8.92063 8.18059 8.16918 8.51412C7.4269 8.83864 6.86332 9.27584 6.47843 9.82572C6.10271 10.3666 5.91485 10.9706 5.91485 11.6376C5.91485 12.1064 6.00649 12.5391 6.18976 12.9357C6.37304 13.3233 6.67087 13.6884 7.08325 14.031C7.50479 14.3645 8.05921 14.68 8.74651 14.9775C9.43381 15.2659 10.2815 15.5409 11.2895 15.8023C12.3525 16.0907 13.2964 16.4108 14.1212 16.7623C14.9459 17.1139 15.6424 17.5195 16.2106 17.9793C16.7787 18.43 17.2094 18.9573 17.5027 19.5613C17.7959 20.1653 17.9425 20.8684 17.9425 21.6707C17.9425 22.473 17.7684 23.1941 17.4202 23.8341C17.0811 24.4651 16.6 25.0015 15.9769 25.4432C15.3629 25.8849 14.6344 26.223 13.7913 26.4573C12.9574 26.6917 12.0455 26.8089 11.0558 26.8089C10.1669 26.8089 9.2826 26.6962 8.40286 26.4709C7.52312 26.2455 6.71669 25.8984 5.98358 25.4297C5.25962 24.9519 4.67771 24.3389 4.23784 23.5907C3.80713 22.8425 3.59178 21.9501 3.59178 20.9135H5.26879C5.26879 21.7428 5.43832 22.4414 5.77739 23.0093C6.11645 23.5772 6.56549 24.037 7.12449 24.3885C7.69265 24.7401 8.3158 24.997 8.99394 25.1593C9.68123 25.3125 10.3685 25.3891 11.0558 25.3891C12.1097 25.3891 13.0215 25.2359 13.7913 24.9294C14.5702 24.6229 15.1704 24.1947 15.592 23.6448C16.0227 23.0859 16.2381 22.4369 16.2381 21.6977Z" fill="#00875F"/>
<path d="M9.92591 26.5385H11.3335V30H9.92591V26.5385Z" fill="#00875F"/>
</svg>
